<?xml version="1.0" encoding="UTF-8"?>
<!-- Generator: Adobe Illustrator 22.1.0, SVG Export Plug-In . SVG Version: 6.00 Build 0)  -->
<svg version="1.1" id="Layer_1" xmlns="http://www.w3.org/2000/svg" xmlns:xlink="http://www.w3.org/1999/xlink" x="0px" y="0px" viewBox="0 0 283.8 47.8" style="enable-background:new 0 0 283.8 47.8;" xml:space="preserve">
<style type="text/css">
	.st0{fill:#FFFFFF;}
</style>
<title>afh-logo-landscape-white</title>
<path class="st0" d="M75.6,17v15.1h-3.7v-2.3c-1.2,1.7-3.1,2.7-5.2,2.6c-4.5,0-7.4-3.5-7.4-8c0-4.3,2.8-7.9,7.5-7.9  c2-0.1,4,0.9,5.2,2.6V17H75.6z M67.4,29.4c2.4,0.1,4.5-1.7,4.6-4.2c0-0.2,0-0.4,0-0.5c0-2.9-1.9-5-4.6-5S63,21.9,63,24.5  S64.7,29.4,67.4,29.4z"/>
<path class="st0" d="M79.8,17h3.7v2.5c0.9-1.9,2.8-3,4.9-2.9c3.8,0,5.6,2.7,5.6,7.1v8.4h-3.7v-8.4c0-2.6-1.1-4-2.9-4  c-2.2,0-3.9,1.6-3.9,4.8v7.6h-3.7V17z"/>
<path class="st0" d="M108,17h4.1l-9.4,22h-3.6l3.1-7.8L95.8,17h4.2l4.1,10.4L108,17z"/>
<path class="st0" d="M119.2,17h4.5v2.8h-4.5v8c0,0.9,0.4,1.6,1.5,1.6c0.8,0,1.5-0.6,1.5-1.4c0-0.1,0-0.1,0-0.2  c0-0.4-0.1-0.9-0.2-1.3h3c0.2,0.5,0.3,1.1,0.3,1.7c0,2.2-1.5,4.2-4.8,4.2c-2.5,0-5-1.1-5-5.3v-7.5h-2.4V17h2.6l0.7-4h2.8L119.2,17z"/>
<path class="st0" d="M127.8,10.4h3.7v9.1c0.9-1.9,2.8-3,4.9-2.9c3.8,0,5.6,2.7,5.6,7.1v8.4h-3.7v-8.4c0-2.6-1.1-4-3-4  s-3.9,1.4-3.9,4.8v7.6h-3.7L127.8,10.4z"/>
<path class="st0" d="M147.9,10.1c1.3,0,2.4,1,2.5,2.3c0,0,0,0,0,0.1c0,1.3-1.1,2.3-2.4,2.3c0,0,0,0-0.1,0c-1.3,0.1-2.3-0.9-2.4-2.2  c0,0,0-0.1,0-0.1c0-1.3,1-2.3,2.3-2.3C147.8,10.1,147.9,10.1,147.9,10.1z M146.1,32.1V17h3.7v15.1L146.1,32.1z"/>
<path class="st0" d="M154,17h3.7v2.5c0.9-1.9,2.8-3,4.9-2.9c3.8,0,5.6,2.7,5.6,7.1v8.4h-3.7v-8.4c0-2.6-1.1-4-2.9-4  c-2.2,0-3.9,1.6-3.9,4.8v7.6H154V17z"/>
<path class="st0" d="M174.1,34.3c1.4,1.2,3.2,1.8,5,1.8c2.6,0,4.8-1.2,4.8-4.5v-1.8c-1.2,1.7-3.1,2.6-5.2,2.6c-4.5,0-7.4-3.5-7.4-8  c0-4.3,2.8-7.9,7.5-7.9c2-0.1,4,0.9,5.2,2.6V17h3.7v13.5c0,6.3-3.3,8.9-8.1,8.9c-2.5,0.1-4.9-0.6-6.9-2.2  C173.1,36.2,173.6,35.3,174.1,34.3z M179.4,29.4c2.4,0.1,4.4-1.8,4.5-4.2c0-0.2,0-0.3,0-0.5c0-2.9-1.9-5-4.6-5s-4.4,2.2-4.4,4.8  S176.6,29.4,179.4,29.4z"/>
<path class="st0" d="M197.7,12.1c-1.2,0-2.5,0.8-2.5,3.5v1.5h4.1V19h-4.1v13.1H193V19h-2.5v-1.8h2.5v-1.3c0-4.7,2.4-5.8,4.7-5.8  c2.8,0,4.4,1.6,4.4,3.7c0,0.3-0.1,0.5-0.1,0.8h-2c0.1-0.2,0.1-0.4,0.1-0.6C199.9,12.7,199,12.1,197.7,12.1z"/>
<path class="st0" d="M208.5,16.9c4.3,0,7.8,3.5,7.8,7.8s-3.5,7.8-7.8,7.8c0,0,0,0,0,0c-4.3,0-7.8-3.5-7.8-7.8S204.2,16.9,208.5,16.9  C208.5,16.9,208.5,16.9,208.5,16.9z M208.5,30.5c3.2,0.1,5.9-2.3,6-5.5s-2.3-5.9-5.5-6s-5.9,2.3-6,5.5c0,0.1,0,0.2,0,0.3  C203,27.8,205.4,30.4,208.5,30.5z"/>
<path class="st0" d="M222.3,20.8c0.6-2.4,2.2-3.9,4.4-3.9c0.4,0,0.8,0.1,1.2,0.2v2.2c-0.4-0.2-0.9-0.3-1.4-0.3c-2,0-4.3,1.7-4.3,7.4  v5.7h-2.3V17.2h2.3V20.8z"/>
<path class="st0" d="M230.4,10.4h3.6v9.1c0.9-1.9,2.8-3,4.9-2.9c3.8,0,5.6,2.7,5.6,7.1v8.4h-3.7v-8.4c0-2.6-1.1-4-3-4  s-3.8,1.3-3.8,4.8v7.6h-3.7L230.4,10.4z"/>
<path class="st0" d="M250.5,10.1c1.3,0,2.4,1,2.5,2.3c0,0,0,0,0,0.1c0,1.3-1.1,2.3-2.4,2.3c0,0,0,0-0.1,0c-1.3,0.1-2.3-0.9-2.4-2.2  c0,0,0-0.1,0-0.1c0-1.3,1-2.3,2.3-2.3C250.4,10.1,250.4,10.1,250.5,10.1z M248.6,32.1V17h3.7v15.1L248.6,32.1z"/>
<path class="st0" d="M260.2,20.3c0.2-2.3,2.3-3.9,4.5-3.7c0.3,0,0.6,0.1,0.9,0.2v3.6c-0.6-0.2-1.1-0.3-1.7-0.3c-1.4,0-3.6,0.8-3.6,5  v7h-3.7V17h3.6V20.3z"/>
<path class="st0" d="M282.3,29.5c-1.7,1.9-4.3,3-6.9,2.9c-5.5,0-8.7-3.5-8.7-7.9c0-4.4,3.6-8,8-8c0.1,0,0.2,0,0.3,0  c4.1,0,8,2.6,8,8.4h-12.6c0,2.4,2,4.3,5.2,4.3c1.7,0,3.4-0.7,4.6-1.9L282.3,29.5z M270.6,22.5h8.6c-0.5-1.9-2.3-3.2-4.2-3  C273.1,19.4,271.2,20.7,270.6,22.5L270.6,22.5z"/>
<path class="st0" d="M29.8,0H18.1C8.1,0,0,8.1,0,18.1v11.7c0,10,8.1,18,18.1,18.1h11.7c10,0,18-8.1,18.1-18.1V18.1  C47.8,8.1,39.7,0,29.8,0z M37.9,38h-5.1v-3.4c-6,5.1-15,4.3-20-1.7s-4.3-15,1.7-20c5-4.2,12.1-4.5,17.4-0.7l-3.7,3.7  c-4.4-2.5-10-1-12.5,3.4s-1,10,3.4,12.5s10,1,12.5-3.4c0.8-1.4,1.2-3,1.2-4.6c0-0.2,0-0.5,0-0.7l5.1-5.1L37.9,38z M23.7,28.6  L23.7,28.6L19,24l2.3-2.3l2.3,2.3l11.9-11.9l2.3,2.3L23.7,28.6z"/>
</svg>